<svg width="701" height="231" viewBox="0 0 701 231" fill="none" xmlns="http://www.w3.org/2000/svg">
<path fill-rule="evenodd" clip-rule="evenodd" d="M302.466 226.108H399.36V178.144C451.914 198.406 491.488 212.336 518.081 219.934C544.991 227.216 569.369 230.857 591.214 230.857C625.405 230.857 652.157 220.568 671.469 199.989C691.098 179.411 700.912 151.234 700.912 115.46C700.912 79.3684 691.098 51.1918 671.469 30.93C652.157 10.3517 625.247 0.0625 590.739 0.0625C569.844 0.0625 546.574 3.70328 520.931 10.9849C495.424 17.9126 453.786 32.2009 396.019 53.8498V35.2159C396.347 25.737 396.511 15.6022 396.511 4.81134H396.019H305.808H305.316C305.316 15.4161 305.48 25.4743 305.808 34.9857V53.8498C248.04 32.2009 206.402 17.9126 180.896 10.9849C155.252 3.70328 131.982 0.0625 111.087 0.0625C76.5791 0.0625 49.5107 10.3517 29.8821 30.93C10.5701 51.1918 0.914062 79.3684 0.914062 115.46C0.914062 151.234 10.5701 179.411 29.8821 199.989C49.5107 220.568 76.4208 230.857 110.613 230.857C132.457 230.857 156.676 227.216 183.27 219.934C210.18 212.336 249.912 198.406 302.466 178.144V226.108ZM105.864 149.176C114.412 156.458 128.183 160.099 147.179 160.099C166.174 160.099 200.999 151.709 251.653 134.93L311.014 115.46L251.653 95.9893C200.999 79.21 166.174 70.8204 147.179 70.8204C128.183 70.8204 114.412 74.4612 105.864 81.7428C97.3158 89.0243 93.0418 100.263 93.0418 115.46C93.0418 130.656 97.3158 141.895 105.864 149.176ZM450.173 134.93C500.827 151.709 535.652 160.099 554.647 160.099C573.643 160.099 587.414 156.458 595.962 149.176C604.51 141.895 608.784 130.656 608.784 115.46C608.784 100.263 604.51 89.0243 595.962 81.7428C587.414 74.4612 573.643 70.8204 554.647 70.8204C535.652 70.8204 500.827 79.21 450.173 95.9893L390.812 115.46L450.173 134.93Z" fill="white"/>
</svg>
